<svg id="Layer_1" data-name="Layer 1" xmlns="http://www.w3.org/2000/svg" xmlns:xlink="http://www.w3.org/1999/xlink" viewBox="0 0 512 512"><defs><style>.cls-1,.cls-2,.cls-3{isolation:isolate;}.cls-1{fill:url(#linear-gradient);}.cls-3{fill:#fff;}</style><linearGradient id="linear-gradient" x1="60.13" y1="253.8" x2="467.3" y2="253.8" gradientUnits="userSpaceOnUse"><stop offset="0" stop-color="#bea1cc"/><stop offset="1" stop-color="#736eb3"/></linearGradient></defs><title>Artboard 46 copy</title><rect class="cls-1" x="60.13" y="50.22" width="417.17" height="417.17"/><g class="cls-2"><path class="cls-3" d="M311.63,147.62h-46.8l.05,56.95A24,24,0,0,0,297,213.29,24.52,24.52,0,0,1,334.58,234c0,.68.05,1.34.05,2s-.05,1.33-.05,2A24.51,24.51,0,0,1,297,258.8a24,24,0,0,0-32,8.65l.05,55.36h46.64q39.8,0,55.49-39.15,8.55-21.5,8.56-51.18,0-41-12.87-62.92T311.63,147.62Z"/><path class="cls-3" d="M453.5,0H59.33A58.92,58.92,0,0,0,.42,58.92V453.08A58.92,58.92,0,0,0,59.33,512H453.5a58.92,58.92,0,0,0,58.92-58.92V58.92A58.92,58.92,0,0,0,453.5,0ZM411.19,319.35Q382,369.44,321.13,369.44H179l-52,62.56h0a8.4,8.4,0,0,1-14.84-5.17h0V369.44h0V101h209q25,.36,41.56,5.83a88.92,88.92,0,0,1,45.77,34.05,119.46,119.46,0,0,1,19.12,43.34,208.17,208.17,0,0,1,5.1,44.44Q432.68,282.21,411.19,319.35Z"/></g></svg>