<svg id="Layer_1" data-name="Layer 1" xmlns="http://www.w3.org/2000/svg" xmlns:xlink="http://www.w3.org/1999/xlink" viewBox="0 0 256 256"><defs><style>.cls-1{fill:#fff;}.cls-2,.cls-3{isolation:isolate;}.cls-2{fill:url(#linear-gradient);}.cls-3{fill:url(#linear-gradient-2);}</style><linearGradient id="linear-gradient" x1="120.05" y1="85.97" x2="181.8" y2="147.72" gradientUnits="userSpaceOnUse"><stop offset="0" stop-color="#bea1cc"/><stop offset="1" stop-color="#736eb3"/></linearGradient><linearGradient id="linear-gradient-2" x1="8.63" y1="8.63" x2="247.37" y2="247.37" xlink:href="#linear-gradient"/></defs><title>Artboard 45</title><rect class="cls-1" x="29.86" y="25.11" width="203.58" height="203.58"/><path class="cls-2" d="M155.61,73.81h-23.4l0,28.48a12,12,0,0,0,16,4.36A12.26,12.26,0,0,1,167.08,117c0,.34,0,.67,0,1s0,.66,0,1a12.26,12.26,0,0,1-18.82,10.37,12,12,0,0,0-16,4.32l0,27.69h23.33q19.89,0,27.74-19.58,4.28-10.74,4.28-25.59,0-20.49-6.44-31.46T155.61,73.81Z"/><path class="cls-3" d="M226.54,0H29.46A29.46,29.46,0,0,0,0,29.46V226.54A29.46,29.46,0,0,0,29.46,256H226.54A29.46,29.46,0,0,0,256,226.54V29.46A29.46,29.46,0,0,0,226.54,0ZM205.38,159.68q-14.58,25-45,25H89.3L63.32,216h0a4.2,4.2,0,0,1-7.42-2.58h0V184.72h0V50.5H160.36q12.49.18,20.77,2.91a44.5,44.5,0,0,1,22.89,17,59.82,59.82,0,0,1,9.56,21.67,104,104,0,0,1,2.55,22.22Q216.13,141.11,205.38,159.68Z"/></svg>